PathFileType	4	(x/y/z)	S09_PSF_T03
DataRate	CameraRate	NumFrames	NumMarkers	Units	OrigDataRate	OrigDataStartFrame	OrigNumFrames
240	240	6	51	mm	240	116	461
Frame#	Time	Sternum			R.Acromium			L.Acromium			Top.Head			R.ASIS			L.ASIS			R.PSIS			L.PSIS			R.Great.Tro			L.Great.Tro			R.Iliac.Crest			L.Iliac.Crest			V.Sacral			R.Thigh.Upper.Post			R.Thigh.Lower.Ant			R.Thigh.Lower.Post			R.Thigh.Upper.Ant			R.Knee.Lat			R.Knee.Med			R.Shank.Upper.Post			R.Shank.Lower.Ant			R.Shank.Lower.Post			R.Shank.Upper.Ant			R.Ankle.Lat			R.Ankle.Med			R.Heel.Upper			R.Heel.Med			R.Heel.Lat			R.Toe.Lat			R.Toe.Med			R.Toe.Tip			L.Thigh.Upper.Post			L.Thigh.Lower.Ant			L.Thigh.Lower.Post			L.Thigh.Upper.Ant			L.Knee.Lat			L.Knee.Med			L.Shank.Upper.Post			L.Shank.Lower.Ant			L.Shank.Lower.Post			L.Shank.Upper.Ant			L.Ankle.Lat			L.Ankle.Med			L.Heel.Upper			L.Heel.Med			L.Heel.Lat			L.Toe.Lat			L.Toe.Med			L.Toe.Tip			Cervical.Spine			Back			
		X1	Y1	Z1	X2	Y2	Z2	X3	Y3	Z3	X4	Y4	Z4	X5	Y5	Z5	X6	Y6	Z6	X7	Y7	Z7	X8	Y8	Z8	X9	Y9	Z9	X10	Y10	Z10	X11	Y11	Z11	X12	Y12	Z12	X13	Y13	Z13	X14	Y14	Z14	X15	Y15	Z15	X16	Y16	Z16	X17	Y17	Z17	X18	Y18	Z18	X19	Y19	Z19	X20	Y20	Z20	X21	Y21	Z21	X22	Y22	Z22	X23	Y23	Z23	X24	Y24	Z24	X25	Y25	Z25	X26	Y26	Z26	X27	Y27	Z27	X28	Y28	Z28	X29	Y29	Z29	X30	Y30	Z30	X31	Y31	Z31	X32	Y32	Z32	X33	Y33	Z33	X34	Y34	Z34	X35	Y35	Z35	X36	Y36	Z36	X37	Y37	Z37	X38	Y38	Z38	X39	Y39	Z39	X40	Y40	Z40	X41	Y41	Z41	X42	Y42	Z42	X43	Y43	Z43	X44	Y44	Z44	X45	Y45	Z45	X46	Y46	Z46	X47	Y47	Z47	X48	Y48	Z48	X49	Y49	Z49	X50	Y50	Z50	X51	Y51	Z51	

116	0.47917	-910.74	1185	292.04	-1051.3	1436.2	433.66	-1021.8	1434.7	120.63	-1029.2	1738.6	272.66	-960.34	1018	386.72	-978.07	1021	142.1	-1189.2	1044.3	324.59	-1188.9	1056.6	236.04	-1033.6	932.06	463.2	-1064.8	937.79	78.671	-1048.8	1097	435.19	-1078.2	1122.5	115.71	-1209.6	1016.8	274.5	-947.32	693.43	447.45	-844.03	626.15	406.13	-919.59	606.25	422.78	-878.05	707.39	432.36	-842.39	547.17	403.79	-840.04	535.37	280.27	-866.55	362.55	409.83	-783.29	325.52	411.08	-844.27	289.75	403.1	-810.41	394.02	419.39	-756.99	117.69	396.17	-722.82	142.18	314.29	-802.51	80.331	336.2	-776.49	56.015	307.07	-794.7	49.645	368.59	-651.41	85.073	447.04	-593.89	114.97	354.64	-565.03	142.36	405.7	-1171.3	696.05	146.71	-1106.9	585.74	146.26	-1172.8	608.07	167.72	-1105.9	672.49	120.53	-1138.4	510.39	161.68	-1105.4	523.71	291.12	-1209.6	385.33	161.97	-1162.3	286.71	178.58	-1218.6	311.37	172.46	-1150.6	362.45	166.06	-1236.6	108.64	214.11	-1213.9	110.16	305.82	-1310.7	77.456	272.99	-1295.7	51.559	304.36	-1310.1	48.46	244.71	-1140.3	41.555	180.34	-1096.7	42.726	286.55	-1048.6	54.838	224.14	-1112.9	1487.3	279.72	-1177.5	1226.8	261.82
117	0.48333	-905.97	1183.9	291.99	-1046.1	1435.2	433.63	-1016.4	1433.7	120.62	-1023.7	1737.6	272.64	-954.62	1016.8	386.47	-973.03	1020.2	141.86	-1183.4	1043.3	324.93	-1183.4	1055.8	236.43	-1027.9	930.53	462.84	-1060.3	937.17	78.506	-1043	1095.7	435.2	-1073.3	1121.8	115.8	-1204.2	1016	274.89	-943.42	691.47	446.86	-840.61	623.52	405.51	-916.32	604.13	422.14	-874.08	704.96	431.71	-838.85	545.45	403.14	-837.12	533.3	279.08	-858.03	360.84	409.34	-773.79	326.06	410.11	-833.8	288.62	402.62	-802.74	393.83	418.45	-741.31	118.58	395.4	-708.45	144.04	313.38	-786.2	79.79	335.69	-759.63	56.271	306.43	-777.24	49.358	368.09	-634.39	88.984	445.56	-578.47	120.66	352.8	-550.05	148.91	403.65	-1168	696.13	147.02	-1104.2	585.44	146.12	-1170.2	608.17	167.87	-1102.8	672.2	120.51	-1136.1	510.2	161.57	-1102.5	523.2	290.84	-1207.8	385.5	161.94	-1161.1	286.58	178.51	-1217.2	311.6	172.49	-1149	362.27	165.95	-1236.3	108.89	214.25	-1213.6	110.24	305.91	-1310.6	77.59	273.12	-1295.6	51.66	304.45	-1310.1	48.627	244.82	-1140.2	41.581	180.39	-1096.6	42.518	286.59	-1048.5	54.516	224.19	-1107.6	1486.3	279.67	-1172.1	1225.8	261.87
118	0.4875	-901	1182.8	291.94	-1040.9	1434.2	433.62	-1011.1	1432.6	120.62	-1018.3	1736.6	272.63	-948.89	1015.5	386.22	-967.94	1019.4	141.62	-1177.6	1042.3	325.27	-1177.9	1054.9	236.83	-1022.3	928.96	462.5	-1055.7	936.53	78.348	-1037.2	1094.5	435.22	-1068.4	1121	115.9	-1198.7	1015.2	275.29	-939.48	689.52	446.32	-837.17	620.89	404.93	-913.02	602.01	421.54	-870.06	702.53	431.09	-835.26	543.76	402.55	-834.23	531.23	277.92	-849.58	359.27	408.9	-764.44	326.67	409.13	-823.49	287.65	402.17	-795.14	393.7	417.52	-726.02	119.65	394.54	-694.49	146.05	312.39	-770.3	79.475	335.04	-743.22	56.771	305.69	-760.2	49.324	367.49	-617.84	93.018	443.95	-563.59	126.42	350.84	-535.57	155.48	401.48	-1164.7	696.18	147.33	-1101.5	585.11	145.96	-1167.5	608.25	168	-1099.7	671.89	120.48	-1133.7	510	161.46	-1099.5	522.66	290.56	-1206	385.66	161.9	-1159.9	286.43	178.44	-1215.9	311.83	172.52	-1147.4	362.08	165.83	-1235.9	109.14	214.39	-1213.3	110.33	305.99	-1310.4	77.738	273.24	-1295.5	51.787	304.53	-1310	48.817	244.92	-1140.1	41.604	180.44	-1096.5	42.311	286.61	-1048.3	54.187	224.23	-1102.3	1485.4	279.63	-1166.6	1224.6	261.94
119	0.49167	-895.86	1181.6	291.87	-1035.6	1433.2	433.62	-1005.7	1431.5	120.62	-1012.8	1735.6	272.61	-943.15	1014.2	385.98	-962.81	1018.5	141.4	-1171.8	1041.2	325.63	-1172.3	1054.1	237.23	-1016.6	927.38	462.17	-1051.1	935.87	78.195	-1031.4	1093.2	435.24	-1063.4	1120.1	116	-1193.2	1014.3	275.68	-935.48	687.58	445.83	-833.66	618.29	404.38	-909.65	599.92	420.99	-865.99	700.14	430.52	-831.59	542.12	402.01	-831.34	529.19	276.78	-841.2	357.81	408.49	-755.26	327.33	408.13	-813.34	286.81	401.71	-787.6	393.61	416.59	-711.15	120.86	393.59	-680.97	148.17	311.3	-754.85	79.361	334.25	-727.29	57.481	304.85	-743.63	49.508	366.78	-601.8	97.118	442.24	-549.26	132.17	348.77	-521.61	162.01	399.19	-1161.3	696.22	147.64	-1098.7	584.77	145.8	-1164.8	608.31	168.12	-1096.5	671.56	120.45	-1131.3	509.78	161.34	-1096.5	522.09	290.27	-1204.2	385.82	161.85	-1158.7	286.27	178.36	-1214.5	312.06	172.53	-1145.7	361.88	165.7	-1235.6	109.41	214.51	-1213	110.42	306.05	-1310.3	77.902	273.35	-1295.4	51.945	304.61	-1309.9	49.031	245.01	-1140.1	41.626	180.49	-1096.4	42.105	286.64	-1048.1	53.849	224.27	-1097	1484.3	279.61	-1161.1	1223.5	262.03
120	0.49583	-890.58	1180.4	291.8	-1030.4	1432.1	433.64	-1000.4	1430.4	120.64	-1007.4	1734.5	272.6	-937.41	1012.9	385.75	-957.63	1017.6	141.19	-1166.1	1040.1	325.98	-1166.7	1053.1	237.63	-1010.9	925.78	461.88	-1046.4	935.18	78.047	-1025.6	1091.9	435.27	-1058.4	1119.2	116.11	-1187.6	1013.4	276.09	-931.4	685.69	445.38	-830.07	615.74	403.85	-906.19	597.87	420.48	-861.84	697.79	429.97	-827.81	540.54	401.52	-828.43	527.19	275.68	-832.92	356.48	408.1	-746.26	328.03	407.12	-803.39	286.09	401.25	-780.13	393.55	415.67	-696.75	122.19	392.54	-667.91	150.37	310.14	-739.88	79.421	333.33	-711.9	58.366	303.89	-727.57	49.873	365.94	-586.32	101.23	440.42	-535.51	137.87	346.61	-508.19	168.42	396.81	-1157.8	696.24	147.92	-1095.8	584.41	145.63	-1162.1	608.34	168.22	-1093.2	671.21	120.42	-1128.8	509.54	161.22	-1093.4	521.49	289.97	-1202.3	385.97	161.79	-1157.4	286.1	178.28	-1213	312.28	172.53	-1143.9	361.67	165.57	-1235.2	109.69	214.63	-1212.7	110.53	306.11	-1310.1	78.085	273.46	-1295.3	52.136	304.69	-1309.8	49.273	245.09	-1140	41.645	180.54	-1096.3	41.901	286.66	-1048	53.504	224.32	-1091.8	1483.3	279.61	-1155.5	1222.3	262.14
121	0.5	-885.18	1179.2	291.72	-1025.1	1431	433.67	-995.1	1429.3	120.66	-1001.9	1733.5	272.59	-931.65	1011.6	385.52	-952.41	1016.7	140.98	-1160.3	1039	326.34	-1161	1052.1	238.04	-1005.1	924.19	461.61	-1041.6	934.46	77.906	-1019.7	1090.5	435.3	-1053.4	1118.3	116.22	-1182	1012.4	276.49	-927.21	683.84	444.98	-826.37	613.28	403.35	-902.6	595.88	420.01	-857.59	695.51	429.47	-823.91	539.03	401.07	-825.47	525.27	274.61	-824.73	355.25	407.73	-737.43	328.73	406.1	-793.65	285.49	400.77	-772.74	393.52	414.76	-682.85	123.58	391.4	-655.33	152.59	308.89	-725.44	79.623	332.27	-697.06	59.389	302.81	-712.06	50.378	364.97	-571.42	105.28	438.51	-522.34	143.44	344.37	-495.34	174.65	394.38	-1154.3	696.23	148.19	-1092.9	584.02	145.45	-1159.2	608.34	168.3	-1089.9	670.84	120.38	-1126.2	509.28	161.1	-1090.3	520.87	289.68	-1200.3	386.12	161.72	-1156	285.92	178.2	-1211.5	312.5	172.52	-1142.1	361.45	165.43	-1234.9	109.98	214.73	-1212.3	110.64	306.15	-1309.9	78.293	273.55	-1295.2	52.363	304.76	-1309.7	49.545	245.16	-1139.9	41.662	180.59	-1096.2	41.701	286.68	-1047.8	53.15	224.36	-1086.5	1482.3	279.62	-1150	1221	262.28
